<?xml version="1.0" encoding="UTF-8" standalone="no"?>
<!-- Created with Inkscape (http://www.inkscape.org/) -->

<svg
   xmlns:dc="http://purl.org/dc/elements/1.1/"
   xmlns:cc="http://creativecommons.org/ns#"
   xmlns:rdf="http://www.w3.org/1999/02/22-rdf-syntax-ns#"
   xmlns:svg="http://www.w3.org/2000/svg"
   xmlns="http://www.w3.org/2000/svg"
   xmlns:sodipodi="http://sodipodi.sourceforge.net/DTD/sodipodi-0.dtd"
   xmlns:inkscape="http://www.inkscape.org/namespaces/inkscape"
   width="1694.48"
   height="520"
   id="svg3161"
   version="1.1"
   inkscape:version="0.48.4 r9939"
   sodipodi:docname="Neues Dokument 3">
  <defs
     id="defs3163" />
  <sodipodi:namedview
     id="base"
     pagecolor="#ffffff"
     bordercolor="#666666"
     borderopacity="1.0"
     inkscape:pageopacity="0.0"
     inkscape:pageshadow="2"
     inkscape:zoom="0.92565943"
     inkscape:cx="847.23999"
     inkscape:cy="260"
     inkscape:document-units="px"
     inkscape:current-layer="layer1"
     showgrid="false"
     fit-margin-top="0"
     fit-margin-left="0"
     fit-margin-right="0"
     fit-margin-bottom="0"
     inkscape:window-width="1680"
     inkscape:window-height="990"
     inkscape:window-x="-4"
     inkscape:window-y="-4"
     inkscape:window-maximized="1" />
  <metadata
     id="metadata3166">
    <rdf:RDF>
      <cc:Work
         rdf:about="">
        <dc:format>image/svg+xml</dc:format>
        <dc:type
           rdf:resource="http://purl.org/dc/dcmitype/StillImage" />
        <dc:title></dc:title>
      </cc:Work>
    </rdf:RDF>
  </metadata>
  <g
     inkscape:label="Ebene 1"
     inkscape:groupmode="layer"
     id="layer1"
     transform="translate(-5.3710714,127.39764)">
    <g
       id="g170"
       transform="matrix(9.8677719,0,0,-9.8677719,15.370087,284.62525)">
      <path
         d="m 0,0 9.7,0 0,14.436 c 0,6.047 1.483,8.046 4.964,8.046 2.625,0 3.652,-2.169 3.652,-5.65 l 0,-16.832 9.7,0 0,14.493 c 0,4.793 0.4,7.989 4.565,7.989 2.511,0 4.051,-1.884 4.051,-5.079 l 0,-17.403 9.7,0 0,17.688 c 0,5.649 -1.027,12.782 -10.442,12.782 -3.994,0 -6.904,-1.655 -9.243,-4.793 -1.598,3.594 -4.908,4.793 -8.617,4.793 -3.594,0 -6.732,-1.941 -8.502,-4.907 l -0.114,0 0,4.051 L 0,29.614 0,0 z m 77.315,29.614 -9.928,0 -5.592,-19.287 -0.114,0 -5.592,19.287 -10.271,0 7.647,-20.599 c 0.569,-1.598 2.453,-6.163 2.453,-7.76 0,-2.054 -1.656,-3.309 -3.88,-3.309 l -3.367,0 0,-7.875 4.564,0 c 6.563,0 10.044,0.799 12.383,7.303 l 11.697,32.24 z M 75.602,9.757 c 0.286,-8.274 7.476,-10.613 14.493,-10.613 6.677,0 14.208,2.625 14.208,10.555 0,2.454 -1.54,6.791 -7.531,7.989 -4.451,0.97 -10.956,1.484 -10.956,4.28 0,2.054 2.568,2.225 4.165,2.225 1.199,0 2.283,-0.228 3.082,-0.742 0.799,-0.513 1.255,-1.312 1.255,-2.568 l 8.958,0 c -0.342,7.703 -7.132,9.587 -13.637,9.587 -5.82,0 -13.523,-1.941 -13.523,-9.073 0,-7.988 7.645,-8.16 13.751,-9.7 1.712,-0.399 4.736,-0.856 4.736,-3.138 0,-2.34 -2.682,-3.139 -4.564,-3.139 -1.37,0 -2.682,0.343 -3.596,1.027 -0.969,0.742 -1.597,1.827 -1.597,3.31 l -9.244,0 z m 39.2,8.102 c 0.571,3.595 2.853,6.049 6.276,6.049 3.252,0 5.592,-2.739 5.763,-6.049 l -12.039,0 z m 21.739,-5.42 c 0.458,10.043 -4.849,18.031 -15.463,18.031 -8.729,0 -15.976,-6.505 -15.976,-15.578 0,-9.928 6.562,-15.748 16.205,-15.748 6.619,0 12.953,2.967 14.721,9.814 l -9.072,0 c -0.913,-2.169 -3.196,-3.252 -5.535,-3.252 -4.108,0 -6.447,2.681 -6.619,6.733 l 21.739,0 z M 138.253,0 l 9.701,0 0,40.741 -9.701,0 0,-40.741 z m 15.519,0 9.7,0 0,23.337 5.82,0 0,6.277 -5.82,0 0,1.312 c 0,2.682 1.37,2.967 3.596,2.967 0.855,0 1.711,-0.057 2.624,-0.171 l 0,6.847 c -1.541,0.057 -3.138,0.172 -4.679,0.172 -8.274,0 -11.241,-2.625 -11.241,-11.127 l -4.679,0 0,-6.277 4.679,0 0,-23.337 z"
         style="fill:#e32119;fill-opacity:1;fill-rule:nonzero;stroke:none"
         id="path172"
         inkscape:connector-curvature="0" />
    </g>
  </g>
</svg>
